<svg width="34" height="34" viewBox="0 0 34 34" fill="none" xmlns="http://www.w3.org/2000/svg">
<g clip-path="url(#clip0_1_507)">
<path d="M25.0245 20.2741C24.1548 19.4043 23.1719 18.7043 22.1325 18.174C21.9678 18.0927 21.8294 17.9667 21.7331 17.8103C21.6368 17.654 21.5865 17.4737 21.588 17.2901L21.8708 14.7869C18.9151 13.7404 15.2382 13.6697 12.1693 14.7445L12.3744 17.2972C12.3673 17.6861 12.1481 18.0184 11.8229 18.1881C10.7763 18.7114 9.80053 19.4185 8.93079 20.2882C8.54896 20.6701 7.91256 20.6701 7.53072 20.2882L5.08413 17.8416C4.7023 17.4598 4.41238 16.8305 4.94271 16.3001C11.5117 9.73113 22.4365 9.7382 28.9985 16.3001C29.5005 16.8022 29.253 17.4457 28.8641 17.8346L26.4246 20.2741C26.0428 20.6559 25.4064 20.6559 25.0245 20.2741Z" fill="white"/>
</g>
<defs>
<clipPath id="clip0_1_507">
<rect width="24" height="24" fill="white" transform="matrix(0.707107 0.707107 0.707107 -0.707107 0 17.0002)"/>
</clipPath>
</defs>
</svg>
