<svg width="17" height="16" viewBox="0 0 17 16" fill="none" xmlns="http://www.w3.org/2000/svg">
<path d="M16.6399 6.04621C16.5352 5.70813 16.2478 5.46802 15.9078 5.43605L11.2898 4.99849L9.46371 0.538446C9.32906 0.211582 9.02241 0 8.68171 0C8.341 0 8.03435 0.211582 7.8997 0.53921L6.07361 4.99849L1.45485 5.43605C1.11549 5.46878 0.828859 5.70813 0.72351 6.04621C0.618161 6.38428 0.715453 6.75509 0.972173 6.98884L4.46286 10.1833L3.43353 14.9147C3.35822 15.2626 3.48761 15.6222 3.76423 15.8308C3.91292 15.9429 4.08687 16 4.26229 16C4.41354 16 4.56357 15.9575 4.69821 15.8734L8.68171 13.389L12.6637 15.8734C12.9551 16.0563 13.3224 16.0396 13.5984 15.8308C13.8752 15.6215 14.0045 15.2618 13.9291 14.9147L12.8998 10.1833L16.3905 6.98947C16.6472 6.75509 16.7453 6.38492 16.6399 6.04621Z" fill="#FFC107"/>
</svg>
