<svg width="22" height="22" viewBox="0 0 22 22" fill="none" xmlns="http://www.w3.org/2000/svg">
<g clip-path="url(#clip0_6_40)">
<path d="M16.4991 0.00457742L13.6462 0C10.4411 0 8.36979 2.12507 8.36979 5.41417V7.91047H5.50135C5.25349 7.91047 5.05276 8.11142 5.05276 8.35929V11.9761C5.05276 12.224 5.25371 12.4247 5.50135 12.4247H8.36979V21.5512C8.36979 21.7991 8.57051 21.9998 8.81838 21.9998H12.5609C12.8087 21.9998 13.0095 21.7988 13.0095 21.5512V12.4247H16.3633C16.6112 12.4247 16.8119 12.224 16.8119 11.9761L16.8133 8.35929C16.8133 8.24027 16.7659 8.1263 16.6819 8.04207C16.5979 7.95785 16.4835 7.91047 16.3645 7.91047H13.0095V5.79433C13.0095 4.77723 13.2518 4.26089 14.5768 4.26089L16.4986 4.26021C16.7462 4.26021 16.947 4.05926 16.947 3.81162V0.453165C16.947 0.205755 16.7465 0.00503516 16.4991 0.00457742Z" fill="#0A033C"/>
</g>
<defs>
<clipPath id="clip0_6_40">
<rect width="22" height="21.9998" fill="white"/>
</clipPath>
</defs>
</svg>
