<svg width="22" height="19" viewBox="0 0 22 19" fill="none" xmlns="http://www.w3.org/2000/svg">
<g clip-path="url(#clip0_6_43)">
<path d="M20.9205 17.3729C20.9677 17.3734 21.0145 17.3642 21.058 17.346C21.1014 17.3279 21.1407 17.301 21.1733 17.2672C21.2058 17.2334 21.2311 17.1933 21.2473 17.1494C21.2636 17.1055 21.2706 17.0588 21.2679 17.0121C21.2679 16.7563 21.112 16.634 20.7921 16.634H20.2753V17.9736H20.4697V17.3897H20.7086L20.714 17.3968L21.0847 17.9736H21.2926L20.8938 17.3766L20.9205 17.3729ZM20.6957 17.2387H20.4703V16.7859H20.7559C20.9035 16.7859 21.0718 16.8097 21.0718 17.0011C21.0718 17.2211 20.9015 17.2387 20.6945 17.2387" fill="#0A033C"/>
<path d="M15.8502 15.694H13.0939V11.42C13.0939 10.4008 13.0755 9.08882 11.6603 9.08882C10.2248 9.08882 10.0051 10.1993 10.0051 11.3458V15.6937H7.24878V6.90463H9.89485V8.10575H9.93189C10.1967 7.65744 10.5794 7.28864 11.0391 7.03863C11.4989 6.78861 12.0185 6.66675 12.5426 6.68602C15.3363 6.68602 15.8514 8.50546 15.8514 10.8724L15.8502 15.694ZM4.13874 5.70323C3.82239 5.70329 3.51311 5.61046 3.25004 5.43647C2.98697 5.26249 2.78192 5.01518 2.66081 4.7258C2.53969 4.43643 2.50795 4.11799 2.56961 3.81076C2.63127 3.50353 2.78357 3.2213 3.00723 2.99976C3.23088 2.77823 3.51586 2.62734 3.82613 2.56617C4.1364 2.50501 4.45801 2.53632 4.7503 2.65614C5.0426 2.77596 5.29245 2.97891 5.46825 3.23932C5.64406 3.49974 5.73793 3.80593 5.73798 4.11917C5.73802 4.32716 5.69668 4.53311 5.61633 4.72528C5.53598 4.91744 5.41821 5.09206 5.2697 5.23915C5.1212 5.38625 4.94488 5.50294 4.75083 5.58256C4.55678 5.66219 4.3488 5.70319 4.13874 5.70323V5.70323ZM5.5169 15.694H2.75772V6.90463H5.5169V15.694ZM17.2244 0.0012549H1.37267C1.01289 -0.00276533 0.666187 0.134812 0.408791 0.383756C0.151396 0.632699 0.0043605 0.972641 -3.05176e-05 1.32888V17.0896C0.00421022 17.446 0.151159 17.7861 0.408546 18.0353C0.665933 18.2845 1.01271 18.4224 1.37267 18.4186H17.2244C17.585 18.4231 17.9328 18.2856 18.1912 18.0364C18.4496 17.7872 18.5975 17.4467 18.6025 17.0896V1.32775C18.5974 0.970797 18.4493 0.630469 18.1909 0.381531C17.9325 0.132594 17.5849 -0.00459043 17.2244 0.000117282" fill="#0A033C"/>
<path d="M20.7195 16.0372C20.3842 16.0404 20.0637 16.175 19.8283 16.4115C19.5929 16.648 19.4616 16.9671 19.4632 17.2992C19.4649 17.6313 19.5992 17.9492 19.8369 18.1834C20.0746 18.4176 20.3963 18.5491 20.7317 18.5491C21.0671 18.5491 21.3888 18.4176 21.6265 18.1834C21.8642 17.9492 21.9986 17.6313 22.0002 17.2992C22.0018 16.9671 21.8705 16.648 21.6351 16.4115C21.3997 16.175 21.0793 16.0404 20.7439 16.0372H20.7195ZM20.7195 18.4053C20.4996 18.409 20.2835 18.3479 20.0985 18.2299C19.9136 18.112 19.7682 17.9423 19.6806 17.7425C19.5931 17.5427 19.5673 17.3216 19.6066 17.1073C19.6459 16.893 19.7486 16.695 19.9015 16.5385C20.0545 16.3819 20.2509 16.2738 20.4659 16.2277C20.6809 16.1817 20.9049 16.1998 21.1095 16.2798C21.3141 16.3598 21.4902 16.4981 21.6154 16.6771C21.7407 16.8562 21.8095 17.068 21.8131 17.2858C21.8131 17.2921 21.8131 17.298 21.8131 17.3043C21.8193 17.59 21.7106 17.8664 21.5109 18.0728C21.3113 18.2792 21.037 18.3986 20.7485 18.4048H20.7198" fill="#0A033C"/>
</g>
<defs>
<clipPath id="clip0_6_43">
<rect width="22" height="18.5714" fill="white"/>
</clipPath>
</defs>
</svg>
