<svg width="22" height="18" viewBox="0 0 22 18" fill="none" xmlns="http://www.w3.org/2000/svg">
<g clip-path="url(#clip0_6_47)">
<path d="M6.94629 17.5273C15.1934 17.5273 19.7034 10.8122 19.7034 4.98913C19.7034 4.7984 19.6994 4.60853 19.6907 4.41952C20.5661 3.7975 21.3271 3.02126 21.9272 2.13762C21.1239 2.48859 20.2593 2.72485 19.3524 2.83138C20.2781 2.28582 20.9888 1.42282 21.324 0.39402C20.4578 0.898768 19.4984 1.26562 18.477 1.46369C17.6588 0.607146 16.4939 0.0714111 15.2042 0.0714111C12.7281 0.0714111 10.7203 2.0449 10.7203 4.4775C10.7203 4.8233 10.7596 5.15966 10.8365 5.4823C7.1101 5.29801 3.80577 3.54449 1.59433 0.878146C1.20927 1.52937 0.987241 2.28585 0.987241 3.09301C0.987241 4.62187 1.7788 5.97155 2.9825 6.76113C2.24689 6.73879 1.55587 6.54032 0.951895 6.20998C0.951235 6.22847 0.951233 6.2465 0.951233 6.26626C0.951233 8.4004 2.49673 10.1822 4.54831 10.586C4.17155 10.687 3.77515 10.7411 3.36603 10.7411C3.07756 10.7411 2.79652 10.7132 2.52335 10.6616C3.09416 12.4125 4.74938 13.6867 6.71178 13.7223C5.17721 14.9045 3.24407 15.6085 1.14307 15.6085C0.781615 15.6085 0.424529 15.5883 0.0735779 15.5476C2.0579 16.7976 4.41411 17.527 6.94653 17.527" fill="#0A033C"/>
</g>
<defs>
<clipPath id="clip0_6_47">
<rect width="22" height="17.6" fill="white"/>
</clipPath>
</defs>
</svg>
