<svg width="31" height="30" viewBox="0 0 31 30" fill="none" xmlns="http://www.w3.org/2000/svg">
<path d="M16.6725 8.23589C15.9284 8.97838 14.7224 8.97838 13.9783 8.23589C13.2344 7.49339 13.2344 6.28947 13.9783 5.54698C14.7224 4.80449 15.9284 4.80449 16.6725 5.54698C17.4163 6.28947 17.4163 7.49339 16.6725 8.23589Z" fill="#9C4DF4"/>
<path d="M19.2749 11.1168C19.0428 11.1168 18.8107 11.0282 18.634 10.8508C18.2806 10.497 18.2813 9.92363 18.6352 9.57046C19.3523 8.85475 19.7471 7.90329 19.7471 6.8914C19.7471 5.87951 19.3523 4.92805 18.6352 4.21234C18.2813 3.85894 18.2806 3.28582 18.634 2.93174C18.9872 2.57789 19.5605 2.57721 19.9144 2.9306C20.9744 3.98849 21.558 5.39497 21.558 6.8914C21.558 8.3876 20.9744 9.79431 19.9144 10.8522C19.7377 11.0287 19.5063 11.1168 19.2749 11.1168Z" fill="#9C4DF4"/>
<path d="M21.323 13.7826C21.0909 13.7826 20.8588 13.694 20.6821 13.5169C20.3287 13.1628 20.3294 12.5897 20.6833 12.2363C22.1138 10.8085 22.9018 8.91038 22.9018 6.89142C22.9018 4.87245 22.1138 2.97433 20.6833 1.54657C20.3294 1.19317 20.3287 0.620053 20.6821 0.265973C21.0355 -0.0878787 21.6086 -0.0885654 21.9625 0.264828C23.7359 2.03477 24.7127 4.38813 24.7125 6.89142C24.7125 9.3947 23.7359 11.7483 21.9625 13.5182C21.7858 13.6945 21.5544 13.7826 21.323 13.7826Z" fill="#9C4DF4"/>
<path d="M11.3715 11.1163C11.1401 11.1163 10.9087 11.0282 10.7317 10.8517C9.67178 9.79384 9.08813 8.38714 9.08813 6.89094C9.08813 5.39451 9.67178 3.98803 10.7317 2.93014C11.0856 2.57674 11.6589 2.5772 12.0121 2.93128C12.3655 3.28513 12.3648 3.85848 12.011 4.21187C11.2939 4.92759 10.8991 5.87905 10.8991 6.89094C10.8991 7.90282 11.2939 8.85428 12.011 9.57C12.3648 9.92316 12.3655 10.4965 12.0121 10.8504C11.8354 11.0275 11.6033 11.1163 11.3715 11.1163Z" fill="#9C4DF4"/>
<path d="M9.32334 13.7835C9.09171 13.7835 8.86031 13.6954 8.68361 13.5189C6.91023 11.749 5.93359 9.3956 5.93359 6.89232C5.93359 4.38881 6.91023 2.03545 8.68361 0.265507C9.03747 -0.0876575 9.61082 -0.0871997 9.96398 0.26688C10.3174 0.620732 10.3167 1.19385 9.96284 1.54725C8.53232 2.97501 7.74428 4.87313 7.74428 6.89209C7.74428 8.91106 8.53232 10.8094 9.96284 12.2372C10.3167 12.5906 10.3174 13.1637 9.96398 13.5178C9.78728 13.6949 9.5552 13.7835 9.32334 13.7835Z" fill="#9C4DF4"/>
<path d="M27.2566 15.3479H3.38955C2.21974 15.3479 1.27148 16.2962 1.27148 17.4657V27.8819C1.27148 29.0517 2.21974 30 3.38955 30H27.2564C28.4262 30 29.3744 29.0517 29.3744 27.8819V17.4657C29.3744 16.2962 28.4262 15.3479 27.2566 15.3479ZM8.23657 27.2825H4.90063C4.40075 27.2825 3.9954 26.8771 3.9954 26.377V18.9709C3.9954 18.471 4.40075 18.0654 4.90063 18.0654C5.40073 18.0654 5.80608 18.4708 5.80608 18.9709V25.4715H8.23657C8.73668 25.4715 9.14203 25.8769 9.14203 26.377C9.14203 26.8771 8.73668 27.2825 8.23657 27.2825ZM11.9472 26.377C11.9472 26.8771 11.5418 27.2825 11.0417 27.2825C10.5416 27.2825 10.1363 26.8771 10.1363 26.377V18.9709C10.1363 18.471 10.5416 18.0654 11.0417 18.0654C11.5418 18.0654 11.9472 18.4708 11.9472 18.9709V26.377ZM19.5653 19.2327L17.3293 26.6386C17.3291 26.6393 17.3289 26.64 17.3287 26.6407C17.0858 27.4695 15.8478 27.4491 15.5965 26.6407C15.5963 26.64 15.596 26.6393 15.5958 26.6386L13.3599 19.2327C13.2154 18.7539 13.4862 18.2487 13.965 18.1041C14.4434 17.9597 14.949 18.2304 15.0934 18.7093L16.4626 23.2441L17.8317 18.7093C17.9764 18.2304 18.4815 17.9594 18.9603 18.1041C19.4389 18.2487 19.7099 18.7539 19.5653 19.2327ZM25.1356 21.3022C25.6357 21.3022 26.041 21.7076 26.041 22.2077C26.041 22.7076 25.6357 23.1132 25.1356 23.1132H22.5661V25.4715H25.6233C26.1234 25.4715 26.5288 25.8769 26.5288 26.377C26.5288 26.8771 26.1234 27.2825 25.6233 27.2825H21.6607C21.1606 27.2825 20.7552 26.8771 20.7552 26.377V18.9709C20.7552 18.471 21.1606 18.0654 21.6607 18.0654H25.7453C26.2452 18.0654 26.6508 18.4708 26.6508 18.9709C26.6508 19.471 26.2452 19.8763 25.7453 19.8763H22.5659V21.3022H25.1356Z" fill="#9C4DF4"/>
</svg>
