<svg width="114" height="30" viewBox="0 0 114 30" fill="none" xmlns="http://www.w3.org/2000/svg">
<path d="M48.64 6.81V3.39H33.13V24H48.64V20.58H36.88V15.21H47.53V11.79H36.88V6.81H48.64ZM63.9016 3.03V10.89C62.6716 9.15 60.8116 8.13 58.5316 8.13C54.4216 8.13 51.4216 11.49 51.4216 16.23C51.4216 21 54.4216 24.36 58.5316 24.36C60.8116 24.36 62.6716 23.34 63.9016 21.6V24H67.5616V3.03H63.9016ZM59.5216 21.24C56.9116 21.24 55.0516 19.14 55.0516 16.23C55.0516 13.32 56.9116 11.25 59.5216 11.25C62.1016 11.25 63.9016 13.32 63.9016 16.23C63.9016 19.14 62.1016 21.24 59.5216 21.24ZM82.1819 8.49V18.3C81.9419 19.95 80.3519 21.24 78.4319 21.24C76.5119 21.24 75.1619 19.74 75.1619 17.64V8.49H71.6219V18.36C71.6219 21.87 73.9919 24.36 77.3819 24.36C79.4219 24.36 81.2219 23.37 82.1819 21.93V24H85.8419V8.49H82.1819ZM95.0652 24H98.5152L105.085 8.49H101.185L96.7752 19.77L92.2752 8.49H88.4052L95.0652 24ZM109.489 6.15C110.629 6.15 111.559 5.16 111.559 4.05C111.559 2.94 110.629 1.98 109.489 1.98C108.319 1.98 107.389 2.94 107.389 4.05C107.389 5.16 108.319 6.15 109.489 6.15ZM107.629 24H111.289V8.49H107.629V24Z" fill="#0A033C"/>
<rect width="25" height="30" rx="5" fill="#FF6652"/>
<path d="M5.75345 8.12427C5.75297 8.12427 5.75242 8.12427 5.75194 8.12427C5.58169 8.12427 5.42157 8.19063 5.30066 8.31124C5.17842 8.43318 5.11108 8.59554 5.11108 8.76839V18.4269C5.11108 18.7811 5.40036 19.0699 5.756 19.0708C7.25527 19.0744 9.76716 19.3869 11.5 21.2003V11.0924C11.5 10.9723 11.4694 10.8595 11.4115 10.7662C9.98923 8.47578 7.25612 8.12778 5.75345 8.12427Z" fill="white"/>
<path d="M18.8889 18.427V8.76839C18.8889 8.59554 18.8215 8.43318 18.6993 8.31124C18.5784 8.19063 18.4181 8.12427 18.2481 8.12427C18.2475 8.12427 18.247 8.12427 18.2465 8.12427C16.7439 8.12784 14.0108 8.47584 12.5885 10.7663C12.5306 10.8596 12.5 10.9724 12.5 11.0925V21.2003C14.2329 19.3869 16.7447 19.0744 18.244 19.0708C18.5996 19.0699 18.8889 18.7811 18.8889 18.427Z" fill="white"/>
<path d="M20.3559 10.3518H19.8889V18.427C19.8889 19.3314 19.1521 20.0687 18.2464 20.071C16.9747 20.074 14.8779 20.3227 13.3928 21.7282C15.9612 21.0994 18.6687 21.5081 20.2118 21.8598C20.4044 21.9037 20.6035 21.8583 20.7579 21.7353C20.9117 21.6126 20.9999 21.4291 20.9999 21.2322V10.9958C21 10.6407 20.711 10.3518 20.3559 10.3518Z" fill="white"/>
<path d="M4.11103 18.427V10.3518H3.644C3.28897 10.3518 3 10.6407 3 10.9958V21.232C3 21.429 3.08824 21.6124 3.24206 21.7351C3.3963 21.8581 3.59521 21.9036 3.78818 21.8596C5.33122 21.5079 8.0388 21.0992 10.6071 21.728C9.12208 20.3226 7.02523 20.074 5.75352 20.0709C4.84788 20.0687 4.11103 19.3314 4.11103 18.427Z" fill="white"/>
</svg>
